<?xml version="1.0" standalone="no"?>
<!DOCTYPE svg PUBLIC "-//W3C//DTD SVG 20010904//EN"
 "http://www.w3.org/TR/2001/REC-SVG-20010904/DTD/svg10.dtd">
<svg version="1.0" xmlns="http://www.w3.org/2000/svg"
 width="700.000000pt" height="700.000000pt" viewBox="0 0 700.000000 700.000000"
 preserveAspectRatio="xMidYMid meet">
<metadata>
Created by potrace 1.11, written by Peter Selinger 2001-2013
</metadata>
<g transform="translate(0.000000,700.000000) scale(0.100000,-0.100000)"
fill="#000000" stroke="none">
<path d="M5906 6975 c-22 -8 -48 -22 -58 -32 -28 -29 -188 -458 -188 -506 0
-133 181 -187 254 -75 8 13 52 122 96 243 87 233 92 264 56 320 -32 48 -102
70 -160 50z"/>
<path d="M3535 6946 c-27 -7 -84 -27 -125 -46 -74 -33 -86 -45 -830 -787 -416
-414 -759 -753 -763 -753 -4 0 -7 53 -7 118 0 144 -19 235 -66 328 -66 133
-176 231 -319 289 -57 23 -90 29 -175 33 -131 5 -197 -8 -303 -60 -162 -81
-281 -238 -313 -416 -7 -42 -78 -547 -156 -1122 l-143 -1045 -133 -155 c-73
-85 -144 -178 -158 -207 -37 -75 -51 -167 -37 -249 21 -122 48 -160 263 -379
l197 -200 -23 -50 c-38 -80 -48 -149 -37 -232 21 -150 -22 -101 932 -1055 810
-811 870 -869 932 -898 125 -58 246 -60 363 -4 28 13 133 87 233 164 173 134
186 141 269 165 291 85 610 243 934 463 431 292 698 529 1466 1296 519 519
574 577 607 641 47 94 67 175 67 280 0 166 -57 302 -175 420 -73 74 -178 137
-248 150 -20 4 -40 11 -42 16 -3 4 26 43 65 86 154 171 212 372 165 570 -45
192 -201 364 -383 424 -37 12 -69 23 -70 25 -2 1 17 40 42 87 152 278 96 589
-140 776 -57 45 -161 98 -212 107 -25 5 -32 11 -28 23 3 9 18 50 33 91 23 65
27 90 27 190 0 94 -4 127 -23 180 -83 236 -288 393 -532 407 -137 9 -287 -34
-388 -111 -19 -14 -38 -23 -41 -19 -4 5 -12 28 -19 53 -56 193 -230 357 -432
405 -76 17 -204 18 -274 1z m266 -298 c62 -29 121 -85 152 -143 18 -33 22 -57
22 -135 0 -81 -4 -103 -24 -145 -20 -39 -155 -179 -635 -655 -336 -332 -720
-712 -853 -844 -134 -132 -243 -238 -244 -236 0 3 -4 73 -9 155 -11 208 -48
306 -162 430 l-51 57 744 744 c409 410 758 753 774 761 92 49 195 53 286 11z
m994 -347 c109 -54 170 -153 169 -277 -1 -103 -32 -164 -142 -276 -48 -50
-103 -103 -124 -119 l-36 -29 -21 67 c-47 154 -169 295 -313 363 l-78 36 113
111 c61 61 126 118 144 127 89 45 193 44 288 -3z m-3447 -480 c65 -33 119 -87
149 -149 26 -54 27 -66 31 -234 3 -144 2 -178 -9 -182 -169 -46 -277 -108
-355 -204 -84 -103 -123 -203 -144 -367 -6 -49 -72 -530 -146 -1068 -74 -538
-134 -984 -134 -991 0 -6 -20 -34 -45 -61 l-44 -50 -179 180 c-187 188 -202
209 -187 274 4 17 70 103 162 211 l157 182 137 1002 c76 550 145 1055 154
1121 8 66 22 141 30 166 27 79 101 151 194 186 54 20 175 12 229 -16z m2848
-40 c55 -25 130 -94 156 -144 41 -81 40 -204 -3 -290 -14 -28 -231 -252 -629
-652 -491 -493 -609 -616 -615 -643 -23 -109 72 -207 182 -188 34 7 118 87
808 776 864 863 817 822 960 822 127 0 230 -66 284 -181 21 -46 26 -70 25
-131 -2 -138 40 -90 -808 -940 -420 -421 -769 -776 -776 -789 -19 -38 -15
-119 7 -150 47 -63 120 -86 190 -60 15 5 300 281 633 614 426 425 618 610 650
626 62 30 170 37 238 15 65 -22 145 -93 180 -160 21 -42 26 -65 26 -131 1
-148 30 -112 -649 -795 -332 -333 -608 -615 -614 -627 -15 -30 -14 -99 3 -131
33 -63 96 -97 161 -87 37 6 73 40 430 395 444 442 446 444 585 445 62 0 85 -5
132 -28 115 -56 184 -174 175 -299 -8 -127 0 -118 -614 -729 -663 -660 -861
-840 -1203 -1095 -433 -323 -741 -482 -1146 -593 -28 -7 -103 -58 -225 -152
-101 -78 -197 -150 -214 -160 -46 -29 -104 -25 -151 10 -21 16 -409 400 -860
852 -896 898 -855 851 -821 931 8 18 82 111 163 206 l149 173 104 757 c57 416
128 928 156 1137 57 414 62 432 134 504 62 62 122 86 216 86 67 0 89 -4 137
-28 65 -32 121 -90 151 -156 19 -41 22 -75 29 -326 5 -154 11 -299 14 -323 11
-87 101 -147 182 -121 29 9 219 193 897 868 473 472 872 865 887 875 78 47
199 54 284 17z"/>
<path d="M6515 6453 c-199 -133 -377 -268 -391 -295 -52 -100 40 -224 150
-204 44 8 414 271 443 315 27 40 30 98 8 142 -37 71 -138 91 -210 42z"/>
<path d="M6385 5679 c-86 -27 -123 -127 -75 -206 37 -62 54 -65 333 -61 231 3
255 5 286 23 97 57 91 188 -11 241 -21 11 -79 14 -265 13 -131 0 -251 -5 -268
-10z"/>
</g>
</svg>
